{"title":"BBC Inside The Dark Web 2014 HDTV 720p Legendado PT-BR","uid":12520747,"size":1111061516,"categoryP":"video","categoryS":"hd___tv_shows","magnet":"?xt=urn:btih:16a06ca42931d787fcd41fab3cbe4f406699cc07&amp;dn=BBC+Inside+The+Dark+Web+2014+HDTV+720p+Legendado+PT-BR&amp;tr=udp%3A%2F%2Ftracker.leechers-paradise.org%3A6969&amp;tr=udp%3A%2F%2Fzer0day.ch%3A1337&amp;tr=udp%3A%2F%2Fopen.demonii.com%3A1337&amp;tr=udp%3A%2F%2Ftracker.coppersurfer.tk%3A6969&amp;tr=udp%3A%2F%2Fexodus.desync.com%3A6969","seeders":1,"leechers":0,"uploader":null,"files":1,"time":1443869487,"description":"Audio: English\r\nLegendas/subtitles: Português (hardsubed)\r\n\r\n===============================================\r\n\r\nAnyone who would give away liberties to gain a little securiy, will deserve neither and lose both.\r\nBenjamin Franklin\r\n\r\n&quot;Todo aquele que abrir mão de liberdade para ganhar um pouco de segurança, não merece nenhuma das duas.&quot;\r\n\r\n\r\nInside the Dark Web aborda a vigilância na internet discutindo os prós e os contras sobre a capacidade de vigiar, registrar e analisar tudo o que acontece na gigantesca WWW.\r\n\r\nO primeiro aspecto discutido é o GCHQ - Quartel General de Comunicações Governamentais da Inglaterra - que é uma agência federal de segurança britânica cuja missão é &quot;trabalhar constantemente para manter a Inglaterra em segurança e a salvo do ambiente desafiador das comunicações modernas&quot;. A existência desta agência só se tornou de conhecimento público devido ao vazamento dos lendários documentos por Edward Snowden.\r\n\r\nTim Berner-Lee, a quem se credita a invenção da internet, explica que os perigos crescem à medida que a WWW se desenvolve com o tempo. Ele destaca que precisamos entender, no que diz respeito à vigilância, que não são pessoas que estão vigiando nossas atividades nas primeiras camadas de monitoramento  destas agências de segurança. São computadores, ou os algorítmos neles hospedados, que destacam os comportamentos merecedores de atenção e depois alertam os oficiais de segurança humanos para que talvez existam razões para investigar melhor.\r\n\r\nO filme muda o foco da vigiância governamental para aquelas conduzidas por organizações comerciais - grandes empresas adquirindo o máximo de informações que puderem sobre as buscas dos internautas, seu tráfego e os hábitos relacionados que as habilitem a introduzir propaganda encomendada no caminho de nossa navegação digital, apresentando produtos que você talvez esteja disposto a comprar com o dinheiro que você se esforçou tanto para ganhar. As agências governamentais geralmente têm acesso a estas informações para seus próprios objetivos de motinoramento também.\r\n\r\nDavid Chaum é um pesquisador renomado sobre o desenvolvimento da internet e já nos anos 1980 escrevia sobre a natureza alarmante da privacidade digital e sobre a necessidade de meditarmos sobre ela antes que a WEB se tornasse o único canal para vivermos nossas vidas. Essas pesquisas levaram ao desenvolvimento da criptografia, que o filme explora por estar relacionada às várias formas em que nossos dados cruzam a rede diariamente.\r\n\r\n==========================================\r\n\r\nVideo\r\nID                             : 1\r\nFormat                         : AVC\r\nFormat/Info                    : Advanced Video Codec\r\nFormat profile                 :   \r\nFormat settings, CABAC         : Yes\r\nFormat settings, ReFrames      : 4 frames\r\nCodec ID                       : V_MPEG4/ISO/AVC\r\nDuration                       : 50mn 27s\r\nBit rate                       : 2 549 Kbps\r\nWidth                          : 1 280 pixels\r\nHeight                         : 720 pixels\r\nDisplay aspect ratio           : 16:9\r\nFrame rate mode                : Constant\r\nFrame rate                     : 60.000 fps\r\nOriginal frame rate            : 59.940 fps\r\nColor space                    : YUV\r\nChroma subsampling             : 4:2:0\r\nBit depth                      : 8 bits\r\nScan type                      : Progressive\r\nBits/(Pixel*Frame)             : 0.046\r\nStream size                    : 900 MiB (85%)\r\nWriting library                : x264 core 146 r2538 121396c\r\n\r\n\r\nAudio\r\nID                             : 2\r\nFormat                         : AC-3\r\nFormat/Info                    : Audio Coding 3\r\nMode extension                 : CM (complete main)\r\nFormat settings, Endianness    : Big\r\nCodec ID                       : A_AC3\r\nDuration                       : 50mn 27s\r\nBit rate mode                  : Constant\r\nBit rate                       : 384 Kbps\r\nChannel(s)                     : 2 channels\r\nChannel positions              : Front: L R\r\nSampling rate                  : 48.0 KHz\r\nBit depth                      : 16 bits\r\nCompression mode               : Lossy\r\nDelay relative to video        : 10ms\r\nStream size                    : 139 MiB (13%)\r\nLanguage                       : English\r\nDefault                        : Yes\r\nForced                         : No","torrent":{"xt":"urn:btih:16a06ca42931d787fcd41fab3cbe4f406699cc07","amp;dn":"BBC+Inside+The+Dark+Web+2014+HDTV+720p+Legendado+PT-BR","amp;tr":["udp%3A%2F%2Ftracker.leechers-paradise.org%3A6969","udp%3A%2F%2Fzer0day.ch%3A1337","udp%3A%2F%2Fopen.demonii.com%3A1337","udp%3A%2F%2Ftracker.coppersurfer.tk%3A6969","udp%3A%2F%2Fexodus.desync.com%3A6969"],"infoHash":"16a06ca42931d787fcd41fab3cbe4f406699cc07","infoHashBuffer":{"type":"Buffer","data":[22,160,108,164,41,49,215,135,252,212,31,171,60,190,79,64,102,153,204,7]},"announce":[],"urlList":[]}}